sfk_cyclingleg_x_-0.1_y_-0.06_states
version=1
nRows=9
nColumns=53
inDegrees=yes

# SIMM Motion File Header:
name sfk_cyclingleg_x_-0.1_y_-0.06_states
datacolumns 53
datarows 9
otherdata 1
range 0.86199581 0.86376139
endheader
time	/jointset/bb/crank_angle/value	/jointset/bb/crank_angle/speed	/jointset/spindle/pedal_angle_r/value	/jointset/spindle/pedal_angle_r/speed	/jointset/ground_pelvis/pelvis_tilt/value	/jointset/ground_pelvis/pelvis_tilt/speed	/jointset/ground_pelvis/pelvis_list/value	/jointset/ground_pelvis/pelvis_list/speed	/jointset/ground_pelvis/pelvis_rotation/value	/jointset/ground_pelvis/pelvis_rotation/speed	/jointset/ground_pelvis/pelvis_tx/value	/jointset/ground_pelvis/pelvis_tx/speed	/jointset/ground_pelvis/pelvis_ty/value	/jointset/ground_pelvis/pelvis_ty/speed	/jointset/ground_pelvis/pelvis_tz/value	/jointset/ground_pelvis/pelvis_tz/speed	/jointset/hip_r/hip_angle_r/value	/jointset/hip_r/hip_angle_r/speed	/jointset/hip_r/hip_adduction_r/value	/jointset/hip_r/hip_adduction_r/speed	/jointset/hip_r/hip_rotation_r/value	/jointset/hip_r/hip_rotation_r/speed	/jointset/knee_r/knee_angle_r/value	/jointset/knee_r/knee_angle_r/speed	/jointset/knee_r/tib_tx_r/value	/jointset/knee_r/tib_tx_r/speed	/jointset/knee_r/tib_ty_r/value	/jointset/knee_r/tib_ty_r/speed	/jointset/tib_pat_r/pat_angle_r/value	/jointset/tib_pat_r/pat_angle_r/speed	/jointset/tib_pat_r/pat_tx_r/value	/jointset/tib_pat_r/pat_tx_r/speed	/jointset/tib_pat_r/pat_ty_r/value	/jointset/tib_pat_r/pat_ty_r/speed	/jointset/ankle_r/ankle_angle_r/value	/jointset/ankle_r/ankle_angle_r/speed	/jointset/subtalar_r/subtalar_angle_r/value	/jointset/subtalar_r/subtalar_angle_r/speed	/jointset/mtp_r/mtp_angle_r/value	/jointset/mtp_r/mtp_angle_r/speed	/forceset/bifemlh_r/activation	/forceset/bifemlh_r/fiber_length	/forceset/bifemsh_r/activation	/forceset/bifemsh_r/fiber_length	/forceset/glut_max2_r/activation	/forceset/glut_max2_r/fiber_length	/forceset/vas_int_r/activation	/forceset/vas_int_r/fiber_length	/forceset/med_gas_r/activation	/forceset/med_gas_r/fiber_length	/forceset/tib_ant_r/activation	/forceset/tib_ant_r/fiber_length
      0.86199581	   -424.01236881	   -480.13863232	    430.66731099	    563.97892016	      0.00000000	      0.00000000	      0.00000000	     -0.00000000	     -0.00000000	     -0.00000000	     -0.10000000	     -0.00000000	     -0.06000000	      0.00000000	      0.00000000	      0.00000000	     76.20780603	   -156.14815612	      4.28262909	      1.77577002	     -1.71506326	     21.41648353	    -91.86326727	    270.20058750	      0.00356070	      0.04018460	     -0.48658245	      0.09374512	     17.57339087	     -1.00391284	      0.03204086	      0.10517968	     -0.02277175	      0.01106237	     22.83912404	    -31.59581693	      0.00000000	      0.00000000	      0.00000000	     -0.00000000	     -0.08553984	      0.13909609	     -0.08553984	      0.15093025	     -0.08553984	      0.15326434	     -0.08553984	      0.14930867	     -0.08553984	      0.13515906	     -0.08553984	      0.11579538
      0.86234751	   -424.18123744	   -480.13863232	    430.86565038	    563.88486178	      0.00000000	      0.00000000	      0.00000000	     -0.00000000	     -0.00000000	     -0.00000000	     -0.10000000	     -0.00000000	     -0.06000000	      0.00000000	      0.00000000	      0.00000000	     76.15281817	   -156.54193819	      4.28325290	      1.77156151	     -1.70753083	     21.41692854	    -91.76820725	    270.36126449	      0.00357481	      0.04001927	     -0.48654947	      0.09380097	     17.57303837	     -1.00057425	      0.03207785	      0.10514631	     -0.02276787	      0.01101308	     22.82803640	    -31.45440248	      0.00000000	      0.00000000	      0.00000000	      0.00000000	     -0.08558513	      0.13908200	     -0.08558513	      0.15096470	     -0.08558513	      0.15323992	     -0.08558513	      0.14925702	     -0.08558513	      0.13516180	     -0.08558513	      0.11580523
      0.86248840	   -424.24888172	   -480.13863232	    430.94509058	    563.84726222	      0.00000000	      0.00000000	      0.00000000	     -0.00000000	     -0.00000000	     -0.00000000	     -0.10000000	     -0.00000000	     -0.06000000	      0.00000000	      0.00000000	      0.00000000	     76.13075269	   -156.69927983	      4.28350237	      1.76986978	     -1.70451350	     21.41709615	    -91.73011293	    270.42526269	      0.00358044	      0.03995294	     -0.48653625	      0.09382316	     17.57289750	     -0.99921709	      0.03209266	      0.10513279	     -0.02276632	      0.01099326	     22.82360895	    -31.39770850	      0.00000000	      0.00000000	      0.00000000	      0.00000000	     -0.08560327	      0.13907635	     -0.08560327	      0.15097853	     -0.08560327	      0.15323012	     -0.08560327	      0.14923631	     -0.08560327	      0.13516815	     -0.08560327	      0.11580917
      0.86274281	   -424.37103539	   -480.13863232	    431.08853223	    563.77947626	      0.00000000	      0.00000000	      0.00000000	     -0.00000000	     -0.00000000	     -0.00000000	     -0.10000000	     -0.00000000	     -0.06000000	      0.00000000	      0.00000000	      0.00000000	     76.09085022	   -156.98283591	      4.28395226	      1.76680625	     -1.69906466	     21.41738351	    -91.66129848	    270.54030381	      0.00359059	      0.03983301	     -0.48651238	      0.09386297	     17.57264360	     -0.99673754	      0.03211940	      0.10510813	     -0.02276352	      0.01095736	     22.81563398	    -31.29526143	      0.00000000	      0.00000000	      0.00000000	     -0.00000000	     -0.08563602	      0.13906612	     -0.08563602	      0.15100354	     -0.08563602	      0.15321237	     -0.08563602	      0.14919889	     -0.08563602	      0.13518663	     -0.08563602	      0.11581626
      0.86309202	   -424.53870235	   -480.13863232	    431.28539080	    563.68666824	      0.00000000	      0.00000000	      0.00000000	     -0.00000000	     -0.00000000	     -0.00000000	     -0.10000000	     -0.00000000	     -0.06000000	      0.00000000	      0.00000000	      0.00000000	     76.03596319	   -157.37083662	      4.28456850	      1.76258347	     -1.69158554	     21.41774608	    -91.56679696	    270.69710105	      0.00360447	      0.03966807	     -0.48647959	      0.09391705	     17.57229613	     -0.99327382	      0.03215610	      0.10507382	     -0.02275971	      0.01090786	     22.80473008	    -31.15450287	      0.00000000	      0.00000000	      0.00000000	     -0.00000000	     -0.08568098	      0.13905204	     -0.08568098	      0.15103796	     -0.08568098	      0.15318793	     -0.08568098	      0.14914746	     -0.08568098	      0.13529382	     -0.08568098	      0.11582595
      0.86314314	   -424.56324586	   -480.13863232	    431.31420474	    563.67310544	      0.00000000	      0.00000000	      0.00000000	     -0.00000000	     -0.00000000	     -0.00000000	     -0.10000000	     -0.00000000	     -0.06000000	      0.00000000	      0.00000000	      0.00000000	     76.02791733	   -157.42751611	      4.28465858	      1.76196361	     -1.69049071	     21.41779608	    -91.55295900	    270.71994598	      0.00360650	      0.03964390	     -0.48647479	      0.09392491	     17.57224537	     -0.99276093	      0.03216147	      0.10506875	     -0.02275915	      0.01090060	     22.80313807	    -31.13388472	      0.00000000	      0.00000000	      0.00000000	     -0.00000000	     -0.08568756	      0.13904998	     -0.08568756	      0.15104301	     -0.08568756	      0.15318435	     -0.08568756	      0.14913992	     -0.08568756	      0.13526815	     -0.08568756	      0.11582736
      0.86327219	   -424.62520809	   -480.13863232	    431.38694494	    563.63889067	      0.00000000	      0.00000000	      0.00000000	     -0.00000000	     -0.00000000	     -0.00000000	     -0.10000000	     -0.00000000	     -0.06000000	      0.00000000	      0.00000000	      0.00000000	     76.00759197	   -157.57047543	      4.28488586	      1.76039676	     -1.68772672	     21.41791885	    -91.51801868	    270.77749792	      0.00361161	      0.03958283	     -0.48646267	      0.09394470	     17.57211734	     -0.99145942	      0.03217503	      0.10505590	     -0.02275774	      0.01088222	     22.79912358	    -31.08181708	      0.00000000	      0.00000000	      0.00000000	     -0.00000000	     -0.08570418	      0.13904476	     -0.08570418	      0.15105576	     -0.08570418	      0.15317529	     -0.08570418	      0.14912090	     -0.08570418	      0.13525963	     -0.08570418	      0.11583093
      0.86362309	   -424.79369032	   -480.13863232	    431.58471139	    563.54604250	      0.00000000	      0.00000000	      0.00000000	     -0.00000000	     -0.00000000	     -0.00000000	     -0.10000000	     -0.00000000	     -0.06000000	      0.00000000	      0.00000000	      0.00000000	     75.95223190	   -157.95823469	      4.28550284	      1.75612221	     -1.68021105	     21.41822769	    -91.42297463	    270.93310417	      0.00362547	      0.03941655	     -0.48642969	      0.09399807	     17.57177006	     -0.98787213	      0.03221189	      0.10502057	     -0.02275393	      0.01083208	     22.78824172	    -30.94012906	      0.00000000	      0.00000000	      0.00000000	     -0.00000000	     -0.08574936	      0.13903055	     -0.08574936	      0.15109051	     -0.08574936	      0.15315059	     -0.08574936	      0.14906912	     -0.08574936	      0.13526252	     -0.08574936	      0.11584060
      0.86376139	   -424.86009467	   -480.13863232	    431.66264866	    563.50952233	      0.00000000	      0.00000000	      0.00000000	     -0.00000000	     -0.00000000	     -0.00000000	     -0.10000000	     -0.00000000	     -0.06000000	      0.00000000	      0.00000000	      0.00000000	     75.93037534	   -158.11067638	      4.28574560	      1.75443184	     -1.67724885	     21.41833943	    -91.38549970	    270.99407866	      0.00363092	      0.03935091	     -0.48641669	      0.09401893	     17.57163354	     -0.98643882	      0.03222641	      0.10500650	     -0.02275244	      0.01081225	     22.78396649	    -30.88424119	      0.00000000	      0.00000000	      0.00000000	     -0.00000000	     -0.08576716	      0.13902494	     -0.08576716	      0.15110423	     -0.08576716	      0.15314083	     -0.08576716	      0.14904869	     -0.08576716	      0.13526885	     -0.08576716	      0.11584440
